<?xml version="1.0" standalone="no"?><!DOCTYPE svg PUBLIC "-//W3C//DTD SVG 1.1//EN" "http://www.w3.org/Graphics/SVG/1.1/DTD/svg11.dtd"><svg t="1524205742904" class="icon" style="" viewBox="0 0 1024 1024" version="1.1" xmlns="http://www.w3.org/2000/svg" p-id="11379" xmlns:xlink="http://www.w3.org/1999/xlink" width="48" height="48"><defs><style type="text/css"></style></defs><path d="M473.14547 1023.456a93.599927 93.599927 0 0 1-93.919926-92.959927L378.857544 864.000125C194.249688 904.128094 155.321719 785.680186 155.321719 785.680186 125.129742 709.024246 81.609776 688.640262 81.609776 688.640262c-60.191953-41.215968 4.559996-40.383968 4.559997-40.383968 66.575948 4.655996 101.647921 68.399947 101.64792 68.399946 59.183954 101.407921 155.247879 72.095944 193.071849 55.167957 5.951995-42.879967 23.167982-72.159944 42.143968-88.767931C275.673625 666.320279 120.761746 609.376324 120.761746 355.200522c0-72.431943 25.91998-131.599897 68.383946-178.07986-6.879995-16.751987-29.599977-84.207934 6.399995-175.567863 0 0 55.743956-17.823986 182.511858 67.999947a636.639503 636.639503 0 0 1 166.07987-22.319983c56.335956 0.24 113.135912 7.583994 166.17587 22.335983C836.969186-16.287187 892.633143 1.536799 892.633143 1.536799c36.095972 91.407929 13.39199 158.879876 6.511995 175.567863 42.511967 46.431964 68.287947 105.647917 68.287946 178.079861 0 254.847801-155.247879 310.943757-302.943763 327.359744 23.775981 20.607984 44.991965 60.959952 44.991965 122.879904 0 88.799931-0.32 125.039902-0.32 125.039902a93.647927 93.647927 0 0 1-93.839927 92.991927H473.12947z" p-id="11380" fill="#31c27c"></path></svg>